<mxfile host="app.diagrams.net" modified="2020-11-24T16:15:16.826Z" agent="5.0 (Windows NT 10.0; Win64; x64) AppleWebKit/537.36 (KHTML, like Gecko) Chrome/86.0.4240.198 Safari/537.36" etag="9em7Gcg0msfECWsCG8lC" version="13.10.2" type="github">
  <diagram id="C5RBs43oDa-KdzZeNtuy" name="Page-1">
    <mxGraphModel dx="1038" dy="548" grid="1" gridSize="10" guides="1" tooltips="1" connect="1" arrows="1" fold="1" page="1" pageScale="1" pageWidth="827" pageHeight="1169" math="0" shadow="0">
      <root>
        <mxCell id="WIyWlLk6GJQsqaUBKTNV-0" />
        <mxCell id="WIyWlLk6GJQsqaUBKTNV-1" parent="WIyWlLk6GJQsqaUBKTNV-0" />
        <mxCell id="bG1fn0OO0-HRe0mFlQHA-3" value="&lt;b&gt;&lt;font style=&quot;font-size: 20px&quot;&gt;input dan&lt;/font&gt;&lt;/b&gt;" style="html=1;strokeWidth=2;shape=manualInput;whiteSpace=wrap;rounded=1;size=26;arcSize=11;" vertex="1" parent="WIyWlLk6GJQsqaUBKTNV-1">
          <mxGeometry x="318" y="370" width="162" height="80" as="geometry" />
        </mxCell>
        <mxCell id="bG1fn0OO0-HRe0mFlQHA-4" value="dan =&amp;nbsp;" style="shape=parallelogram;html=1;strokeWidth=2;perimeter=parallelogramPerimeter;whiteSpace=wrap;rounded=1;arcSize=12;size=0.23;" vertex="1" parent="WIyWlLk6GJQsqaUBKTNV-1">
          <mxGeometry x="308.5" y="690" width="201.5" height="80" as="geometry" />
        </mxCell>
        <mxCell id="bG1fn0OO0-HRe0mFlQHA-5" value="&lt;font style=&quot;font-size: 20px&quot;&gt;start&lt;/font&gt;" style="strokeWidth=2;html=1;shape=mxgraph.flowchart.start_1;whiteSpace=wrap;" vertex="1" parent="WIyWlLk6GJQsqaUBKTNV-1">
          <mxGeometry x="318" y="90" width="152" height="80" as="geometry" />
        </mxCell>
        <mxCell id="bG1fn0OO0-HRe0mFlQHA-8" value="" style="verticalLabelPosition=bottom;verticalAlign=top;html=1;shape=hexagon;perimeter=hexagonPerimeter2;arcSize=6;size=0.27;" vertex="1" parent="WIyWlLk6GJQsqaUBKTNV-1">
          <mxGeometry x="307.5" y="220" width="182" height="90" as="geometry" />
        </mxCell>
        <mxCell id="bG1fn0OO0-HRe0mFlQHA-12" value="&lt;b&gt;&lt;font style=&quot;font-size: 20px&quot;&gt;press &#39;확인&#39;?&lt;/font&gt;&lt;/b&gt;" style="strokeWidth=2;html=1;shape=mxgraph.flowchart.decision;whiteSpace=wrap;" vertex="1" parent="WIyWlLk6GJQsqaUBKTNV-1">
          <mxGeometry x="307.5" y="510" width="192" height="120" as="geometry" />
        </mxCell>
        <mxCell id="bG1fn0OO0-HRe0mFlQHA-15" value="" style="strokeWidth=2;html=1;shape=mxgraph.flowchart.decision;whiteSpace=wrap;" vertex="1" parent="WIyWlLk6GJQsqaUBKTNV-1">
          <mxGeometry x="359.25" y="940" width="100" height="100" as="geometry" />
        </mxCell>
        <mxCell id="bG1fn0OO0-HRe0mFlQHA-17" value="" style="strokeWidth=2;html=1;shape=mxgraph.flowchart.display;whiteSpace=wrap;" vertex="1" parent="WIyWlLk6GJQsqaUBKTNV-1">
          <mxGeometry x="200.75" y="1180" width="386.5" height="170" as="geometry" />
        </mxCell>
        <mxCell id="bG1fn0OO0-HRe0mFlQHA-20" value="" style="strokeWidth=2;html=1;shape=mxgraph.flowchart.display;whiteSpace=wrap;" vertex="1" parent="WIyWlLk6GJQsqaUBKTNV-1">
          <mxGeometry x="349" y="840" width="100" height="60" as="geometry" />
        </mxCell>
        <mxCell id="bG1fn0OO0-HRe0mFlQHA-21" value="&lt;b&gt;&lt;font style=&quot;font-size: 20px&quot;&gt;num = num+1&lt;/font&gt;&lt;/b&gt;" style="shape=parallelogram;html=1;strokeWidth=2;perimeter=parallelogramPerimeter;whiteSpace=wrap;rounded=1;arcSize=12;size=0.23;" vertex="1" parent="WIyWlLk6GJQsqaUBKTNV-1">
          <mxGeometry x="295" y="1420" width="236.75" height="60" as="geometry" />
        </mxCell>
        <mxCell id="bG1fn0OO0-HRe0mFlQHA-22" value="&lt;b&gt;&lt;font style=&quot;font-size: 20px&quot;&gt;end&lt;/font&gt;&lt;/b&gt;" style="strokeWidth=2;html=1;shape=mxgraph.flowchart.start_1;whiteSpace=wrap;" vertex="1" parent="WIyWlLk6GJQsqaUBKTNV-1">
          <mxGeometry x="333.5" y="1560" width="156" height="80" as="geometry" />
        </mxCell>
      </root>
    </mxGraphModel>
  </diagram>
</mxfile>
